<?xml version="1.0" encoding="UTF-8"?>
<svg height="128px" viewBox="0 0 128 128" width="128px" xmlns="http://www.w3.org/2000/svg" xmlns:xlink="http://www.w3.org/1999/xlink">
    <linearGradient id="a" gradientUnits="userSpaceOnUse">
        <stop offset="0.534327" stop-color="#b94000"/>
        <stop offset="0.72638" stop-color="#de560e"/>
    </linearGradient>
    <linearGradient id="b" x1="13.770529" x2="114.229469" xlink:href="#a" y1="35.000046" y2="93.000031"/>
    <linearGradient id="c" x1="0.01" x2="30.021261" xlink:href="#a" y1="112.979065" y2="112.979065"/>
    <linearGradient id="d" x1="97.988739" x2="128" xlink:href="#a" y1="14.97908" y2="14.97908"/>
    <linearGradient id="e" gradientUnits="userSpaceOnUse" x1="100.563667" x2="21.436331" y1="99.206116" y2="22.793732">
        <stop offset="0" stop-color="#de560e"/>
        <stop offset="1" stop-color="#b94000"/>
    </linearGradient>
    <path d="m 122 64 c 0 32.03125 -25.96875 58 -58 58 s -58 -33.59375 -58 -58 c 0 -32.03125 25.96875 -58 58 -58 c 23.53125 0 58 25.96875 58 58 z m 0 0" fill="url(#b)"/>
    <path d="m 30.019531 104 s -3.625 23.957031 -6.007812 23.957031 c -2.382813 0 -4.765625 -2.761719 -7 -5 c -2.238281 -2.234375 -6.992188 -0.832031 -9 -3 c -2.011719 -2.167969 0.082031 -5.609375 -2 -8 c -2.085938 -2.386719 -6.0000002 -4.894531 -6.0000002 -8 c 0 -3.101562 23.9609372 -5.957031 23.9609372 -5.957031 z m 0 0" fill="url(#c)"/>
    <path d="m 24.117188 127.027344 c 0.082031 -0.09375 0.210937 -0.285156 0.351562 -0.566406 c 0.289062 -0.582032 0.621094 -1.488282 0.953125 -2.589844 c 0.660156 -2.199219 1.335937 -5.183594 1.933594 -8.164063 c 1.164062 -5.773437 1.984375 -11.191406 2.039062 -11.558593 l -5.480469 -5.4375 c -0.347656 0.042968 -5.789062 0.691406 -11.566406 1.753906 c -2.976562 0.550781 -5.953125 1.195312 -8.144531 1.882812 c -1.09375 0.34375 -1.992187 0.699219 -2.558594 1.023438 c -0.285156 0.164062 -0.480469 0.320312 -0.574219 0.417968 c -0.089843 0.101563 -0.0625 0.109376 -0.0625 0.050782 c 0 1.222656 0.816407 2.46875 2.003907 3.730468 c 1.191406 1.261719 2.691406 2.480469 3.804687 3.753907 c 1.25 1.429687 1.234375 3.167969 1.222656 4.601562 c -0.011718 1.433594 -0.011718 2.550781 0.761719 3.382813 c 0.738281 0.796875 2.207031 1.027344 3.929688 1.226562 c 1.722656 0.199219 3.679687 0.378906 5.050781 1.75 c 1.132812 1.132813 2.277344 2.367188 3.386719 3.289063 c 1.074219 0.886719 2.082031 1.410156 2.949219 1.453125 z m 0 0" fill="#f16a22"/>
    <path d="m 97.988281 23.957031 s 3.628907 -23.957031 6.011719 -23.957031 s 4.765625 2.765625 7 5 s 6.992188 0.832031 9 3 s -0.085938 5.613281 2 8 s 6 4.898438 6 8 s -23.960938 5.957031 -23.960938 5.957031 z m 0 0" fill="url(#d)"/>
    <path d="m 116 61 c 0 30.375 -24.625 55 -55 55 s -55 -24.625 -55 -55 s 24.625 -55 55 -55 s 55 24.625 55 55 z m 0 0" fill="url(#e)"/>
    <path d="m 115 61 c 0 29.824219 -24.175781 54 -54 54 s -54 -24.175781 -54 -54 s 24.175781 -54 54 -54 s 54 24.175781 54 54 z m 0 0" fill="#f16a22"/>
    <path d="m 104.109375 0.8125 c -0.082031 0.09375 -0.210937 0.285156 -0.351563 0.566406 c -0.289062 0.582032 -0.621093 1.488282 -0.953124 2.589844 c -0.660157 2.199219 -1.335938 5.183594 -1.9375 8.164062 c -1.160157 5.773438 -1.980469 11.191407 -2.039063 11.554688 l 5.484375 5.4375 c 0.347656 -0.039062 5.789062 -0.691406 11.5625 -1.75 c 2.980469 -0.550781 5.957031 -1.195312 8.144531 -1.882812 c 1.097657 -0.34375 1.996094 -0.699219 2.5625 -1.023438 c 0.285157 -0.164062 0.480469 -0.320312 0.574219 -0.417969 c 0.089844 -0.101562 0.0625 -0.109375 0.0625 -0.050781 c 0 -1.222656 -0.816406 -2.46875 -2.007812 -3.730469 c -1.1875 -1.261719 -2.6875 -2.480469 -3.800782 -3.753906 c -1.25 -1.433594 -1.234375 -3.167969 -1.222656 -4.601563 c 0.011719 -1.4375 0.011719 -2.550781 -0.761719 -3.382812 c -0.738281 -0.796875 -2.207031 -1.027344 -3.929687 -1.226562 c -1.722656 -0.203126 -3.679688 -0.378907 -5.050782 -1.75 c -1.132812 -1.132813 -2.277343 -2.367188 -3.390624 -3.289063 c -1.070313 -0.886719 -2.078126 -1.414063 -2.945313 -1.453125 z m 0 0" fill="#ffe899"/>
    <path d="m 104.109375 0.8125 c -0.082031 0.09375 -0.210937 0.285156 -0.351563 0.566406 c -0.289062 0.582032 -0.621093 1.488282 -0.953124 2.589844 c -0.660157 2.199219 -1.335938 5.183594 -1.9375 8.164062 c -1.160157 5.773438 -1.980469 11.191407 -2.039063 11.554688 l 5.484375 5.4375 c 0.347656 -0.039062 5.789062 -0.691406 11.5625 -1.75 c 2.980469 -0.550781 5.957031 -1.195312 8.144531 -1.882812 c 1.097657 -0.34375 1.996094 -0.699219 2.5625 -1.023438 c 0.285157 -0.164062 0.480469 -0.320312 0.574219 -0.417969 c 0.089844 -0.101562 0.0625 -0.109375 0.0625 -0.050781 c 0 -1.222656 -0.816406 -2.46875 -2.007812 -3.730469 c -1.1875 -1.261719 -2.6875 -2.480469 -3.800782 -3.753906 c -1.25 -1.433594 -1.234375 -3.167969 -1.222656 -4.601563 c 0.011719 -1.4375 0.011719 -2.550781 -0.761719 -3.382812 c -0.738281 -0.796875 -2.207031 -1.027344 -3.929687 -1.226562 c -1.722656 -0.203126 -3.679688 -0.378907 -5.050782 -1.75 c -1.132812 -1.132813 -2.277343 -2.367188 -3.390624 -3.289063 c -1.070313 -0.886719 -2.078126 -1.414063 -2.945313 -1.453125 z m 0 0" fill="#f16a22"/>
    <g fill="#de560e">
        <path d="m 4.019531 105.933594 s 12.890625 -3.960938 14.054688 -1.945313 c 1.164062 2.015625 -9.148438 8.085938 -9.148438 8.085938 s 5.734375 -3.839844 5.128907 -6.097657 c -0.605469 -2.261718 -10.035157 -0.042968 -10.035157 -0.042968 z m 0 0"/>
        <path d="m 13.84375 118.566406 s 7.296875 -11.339844 9.488281 -10.550781 c 2.1875 0.789063 -1.777343 12.082031 -1.777343 12.082031 s 1.902343 -6.632812 -0.015626 -7.96875 c -1.917968 -1.335937 -7.695312 6.4375 -7.695312 6.4375 z m 0 0"/>
        <path d="m 124.164062 21.460938 s -12.890624 3.960937 -14.054687 1.945312 c -1.160156 -2.015625 9.148437 -8.089844 9.148437 -8.089844 s -5.730468 3.839844 -5.125 6.101563 c 0.605469 2.257812 10.03125 0.042969 10.03125 0.042969 z m 0 0"/>
        <path d="m 108.710938 4.355469 s -6.171876 11.988281 -4.394532 13.492187 c 1.78125 1.5 9.574219 -7.578125 9.574219 -7.578125 s -4.789063 4.964844 -6.90625 3.96875 c -2.117187 -0.996093 1.726563 -9.882812 1.726563 -9.882812 z m 0 0"/>
    </g>
    <path d="m 95.59375 70.515625 c -4.199219 0 -11.484375 -2.058594 -21.246094 -5.980469 c 9.0625 -4.367187 16.300782 -6.644531 21.246094 -6.644531 c 5.34375 0 6.390625 2.398437 6.390625 6.539063 c 0 5.167968 -1.671875 6.085937 -6.390625 6.085937 z m -69.179688 -6.332031 c -5.347656 0 -6.390624 -2.398438 -6.390624 -6.539063 c 0 -5.167969 1.675781 -6.085937 6.390624 -6.085937 c 4.199219 0 11.488282 2.050781 21.242188 5.980468 c -9.054688 4.367188 -16.296875 6.644532 -21.242188 6.644532 z m 69.179688 -11.320313 c -7.464844 0 -17.734375 4.15625 -27.273438 9.074219 l -9.238281 -4.707031 c 7.550781 -4.203125 14.113281 -8.484375 17.753907 -10.917969 l 1.652343 -1.109375 c 0.335938 -0.265625 0.554688 -0.65625 0.609375 -1.082031 c 0.050782 -0.425782 -0.066406 -0.855469 -0.328125 -1.195313 l -0.933593 -1.328125 c -0.542969 -0.765625 -1.476563 -1.042968 -2.078126 -0.589844 l -0.363281 0.238282 c -2.894531 1.96875 -9.761719 6.535156 -17.78125 11.066406 c -1.386719 0.78125 -2.742187 1.527344 -4.070312 2.234375 c -12.519531 -5.292969 -21.644531 -8 -27.128907 -8 c -5.292968 0 -11.414062 1.257813 -11.414062 11.109375 c 0 5.292969 1.980469 11.558594 11.414062 11.558594 c 7.46875 0 17.734376 -4.148438 27.269532 -9.066406 l 9.246094 4.703124 c -7.140626 3.976563 -13.40625 8.015626 -17.128907 10.503907 l -2.152343 1.441406 c -0.363282 0.257813 -0.613282 0.648437 -0.6875 1.089844 c -0.078126 0.441406 0.019531 0.894531 0.273437 1.261719 l 0.941406 1.328124 c 0.246094 0.363282 0.625 0.617188 1.058594 0.703126 c 0.429687 0.082031 0.875 -0.007813 1.242187 -0.25 l 1.339844 -0.886719 c 3.347656 -2.265625 9.515625 -6.28125 16.570313 -10.269531 c 1.386719 -0.78125 2.746093 -1.53125 4.070312 -2.238282 c 12.523438 5.292969 21.648438 8 27.128907 8 c 5.292968 0 11.414062 -1.261718 11.414062 -11.105468 c 0 -5.292969 -1.976562 -11.566407 -11.414062 -11.566407" fill="#ffffff"/>
</svg>
