<?xml version="1.0" encoding="UTF-8"?>
<svg height="16px" viewBox="0 0 16 16" width="16px" xmlns="http://www.w3.org/2000/svg">
    <path d="m 13.355469 0 c -0.253907 0.0078125 -0.472657 0.183594 -0.527344 0.429688 l -0.464844 2.097656 c -1.195312 -0.957032 -2.710937 -1.527344 -4.363281 -1.527344 c -3.867188 0 -7 3.132812 -7 7 c 0 1.652344 0.574219 3.167969 1.53125 4.367188 l -2.101562 0.464843 c -0.195313 0.046875 -0.351563 0.191407 -0.4062505 0.382813 c -0.0585937 0.195312 -0.0039063 0.402344 0.1367185 0.542968 l 2.085938 2.085938 c 0.140625 0.140625 0.347656 0.195312 0.539062 0.140625 c 0.195313 -0.058594 0.339844 -0.214844 0.382813 -0.410156 l 0.46875 -2.101563 c 1.195312 0.957032 2.710937 1.527344 4.363281 1.527344 c 3.867188 0 7 -3.132812 7 -7 c 0 -1.652344 -0.570312 -3.167969 -1.527344 -4.363281 l 2.09375 -0.464844 c 0.199219 -0.042969 0.355469 -0.191406 0.410156 -0.382813 c 0.054688 -0.191406 0.003907 -0.398437 -0.140624 -0.539062 l -2.085938 -2.085938 c -0.105469 -0.1054682 -0.246094 -0.164062 -0.394531 -0.164062 z m -5.355469 3 c 0.019531 0 0.039062 0.003906 0.0625 0.007812 c -0.023438 -0.003906 -0.042969 -0.003906 -0.0625 -0.003906 c -0.097656 0.003906 -0.191406 0.011719 -0.28125 0.019532 c 0.09375 -0.011719 0.1875 -0.019532 0.28125 -0.023438 z m -1.550781 0.257812 c -0.011719 0.003907 -0.023438 0.007813 -0.039063 0.011719 c 0.011719 -0.003906 0.027344 -0.007812 0.039063 -0.011719 z m 3.574219 2.109376 c 0.0625 0.003906 0.128906 0.042968 0.171874 0.105468 l 0.121094 0.171875 c 0.035156 0.046875 0.050782 0.101563 0.042969 0.15625 c -0.007813 0.054688 -0.035156 0.109375 -0.078125 0.144531 l -0.21875 0.140626 c -0.472656 0.320312 -1.328125 0.878906 -2.3125 1.425781 l 1.203125 0.613281 c 1.242187 -0.640625 2.582031 -1.183594 3.558594 -1.183594 c 1.230469 0 1.488281 0.820313 1.488281 1.507813 c 0 1.285156 -0.800781 1.449219 -1.488281 1.449219 c -0.714844 0 -1.90625 -0.351563 -3.542969 -1.042969 c -0.171875 0.09375 -0.347656 0.191406 -0.527344 0.292969 c -0.921875 0.519531 -1.726562 1.042968 -2.160156 1.339843 l -0.175781 0.117188 c -0.046875 0.03125 -0.105469 0.039062 -0.164063 0.03125 c -0.054687 -0.011719 -0.105468 -0.046875 -0.136718 -0.09375 l -0.125 -0.171875 c -0.03125 -0.046875 -0.042969 -0.109375 -0.03125 -0.164063 c 0.007812 -0.058593 0.039062 -0.109375 0.085937 -0.144531 l 0.28125 -0.1875 c 0.484375 -0.324219 1.304687 -0.851562 2.234375 -1.367188 l -1.207031 -0.613281 c -1.242188 0.640625 -2.582031 1.179688 -3.554688 1.179688 c -1.230469 0 -1.488281 -0.816407 -1.488281 -1.507813 c 0 -1.285156 0.796875 -1.449218 1.488281 -1.449218 c 0.714844 0 1.90625 0.355468 3.539063 1.046874 c 0.171875 -0.09375 0.347656 -0.191406 0.527344 -0.296874 c 1.046874 -0.589844 1.945312 -1.183594 2.320312 -1.441407 l 0.046875 -0.03125 c 0.03125 -0.019531 0.066406 -0.03125 0.101563 -0.027343 z m -6.320313 0.082031 l 0.007813 0.003906 c -0.015626 0.027344 -0.03125 0.054687 -0.046876 0.085937 c 0.011719 -0.03125 0.027344 -0.058593 0.039063 -0.089843 z m 9.042969 0.988281 h 0.003906 c 0 0.007812 0.003906 0.019531 0.003906 0.03125 c 0 -0.011719 -0.003906 -0.023438 -0.007812 -0.03125 z m -9.257813 0.332031 c -0.613281 0 -0.832031 0.121094 -0.832031 0.796875 c 0 0.539063 0.136719 0.851563 0.832031 0.851563 c 0.644531 0 1.589844 -0.296875 2.769531 -0.867188 c -1.273437 -0.511719 -2.222656 -0.78125 -2.769531 -0.78125 z m 9.023438 0.828125 c -0.644531 0 -1.589844 0.296875 -2.769531 0.867188 c 1.269531 0.511718 2.222656 0.777344 2.769531 0.777344 c 0.617187 0 0.832031 -0.117188 0.832031 -0.792969 c 0 -0.539063 -0.136719 -0.851563 -0.832031 -0.851563 z m 0.488281 0.394532 v 0.007812 c -0.003906 0.027344 -0.003906 0.050781 -0.007812 0.078125 c 0.003906 -0.023437 0.003906 -0.050781 0.007812 -0.074219 c 0 0 0 0 0 -0.003906 s 0 -0.003906 0 -0.003906 s 0 0 0 -0.003906 z m 0 0"/>
</svg>
